# xmcd CD database file
#
# Track frame offsets:
#	150
#	16693
#	37577
#	49653
#	65876
#	85163
#	102289
#	116518
#	137566
#	161519
#	179655
#	193552
#	217562
#
# Disc length: 3029 seconds
#
# Revision: 0
# Processed by: cddbd v1.5.1PL0 Copyright (c) Steve Scherf et al.
# Submitted via: CDex 1.40Release
#
DISCID=a00bd30d
DTITLE=Brother Yusef - BACK at the CROSSROADS Project
DYEAR=1999
DGENRE=Blues
TTITLE0=Get Outta Town
TTITLE1=Blues Is My Story
TTITLE2=Ife's Blues
TTITLE3=Power Of The Blues
TTITLE4=Love and The Blues
TTITLE5=Back At The Crossroads
TTITLE6=Bottom Blues
TTITLE7=Shoes Of Another Man
TTITLE8=Freedom Train Blues
TTITLE9=What's Up Blues
TTITLE10=Bakersfield Blues
TTITLE11=Sweet Woman Tonite
TTITLE12=Lucky Thirteen Blues
EXTD=YEAR: 1999 ID3G: 0
EXTT0=
EXTT1=
EXTT2=
EXTT3=
EXTT4=
EXTT5=
EXTT6=
EXTT7=
EXTT8=
EXTT9=
EXTT10=
EXTT11=
EXTT12=
PLAYORDER=
